<svg width="16" height="16" viewBox="0 0 16 16" fill="none" xmlns="http://www.w3.org/2000/svg">
    <path fill-rule="evenodd" clip-rule="evenodd" d="M0 8c0 4.411 3.589 8 8 8s8-3.589 8-8-3.589-8-8-8-8 3.589-8 8zm1.113 0A6.895 6.895 0 0 1 8 1.113 6.895 6.895 0 0 1 14.887 8 6.895 6.895 0 0 1 8 14.887 6.895 6.895 0 0 1 1.113 8z" fill="#8C8C8C"/>
    <path d="M10.682 10.661a.553.553 0 0 1-.29-.081L7.71 8.945a.556.556 0 0 1-.266-.475V4.52a.556.556 0 0 1 1.112 0v3.638l2.416 1.472a.556.556 0 0 1-.29 1.031z" fill="#8C8C8C"/>
</svg>
