<svg width="18" height="18" viewBox="0 0 18 18" fill="none" xmlns="http://www.w3.org/2000/svg">
    <path d="M11.88 16.688H6.12a2.287 2.287 0 0 1-2.25-2.145l-.682-10.38a.57.57 0 0 1 .337-.549.577.577 0 0 1 .225-.051h10.5a.562.562 0 0 1 .563.6l-.653 10.38a2.288 2.288 0 0 1-2.28 2.145zm-7.5-12 .578 9.787a1.162 1.162 0 0 0 1.162 1.088h5.76a1.17 1.17 0 0 0 1.163-1.088l.607-9.75-9.27-.037z" fill="red"/>
    <path d="M15.75 4.688H2.25a.563.563 0 1 1 0-1.125h13.5a.562.562 0 1 1 0 1.124z" fill="red"/>
    <path d="M11.25 4.688h-4.5a.57.57 0 0 1-.563-.563v-1.35A1.5 1.5 0 0 1 7.65 1.313h2.7a1.5 1.5 0 0 1 1.463 1.5v1.312a.57.57 0 0 1-.563.563zM7.312 3.563h3.375v-.75a.338.338 0 0 0-.337-.338h-2.7a.338.338 0 0 0-.338.337v.75zM11.25 13.688a.57.57 0 0 1-.563-.563v-6a.563.563 0 0 1 1.126 0v6a.57.57 0 0 1-.563.563zM6.75 13.688a.57.57 0 0 1-.563-.563v-6a.563.563 0 1 1 1.125 0v6a.57.57 0 0 1-.562.563zM9 13.688a.57.57 0 0 1-.563-.563v-6a.563.563 0 1 1 1.126 0v6a.57.57 0 0 1-.563.563z" fill="red"/>
</svg>
