<svg width="35" height="35" viewBox="0 0 35 35" fill="none" xmlns="http://www.w3.org/2000/svg">
    <path d="M21.587 1.362H17.5v2.555h2.81v4.811c0 4.226-3.438 7.665-7.664 7.665-4.226 0-7.664-3.439-7.664-7.664V3.917h2.725V1.362H3.704c-.705 0-1.277.572-1.277 1.278v6.089c0 5.634 4.584 10.219 10.219 10.219s10.219-4.585 10.219-10.22V2.64c0-.706-.572-1.278-1.278-1.278z" fill="#1C1F1E"/>
    <path d="M26.57 20.012v6.046a6.394 6.394 0 0 1-6.388 6.387 6.394 6.394 0 0 1-6.387-6.387v-8.345h-2.554v8.345c0 4.93 4.01 8.942 8.941 8.942 4.93 0 8.942-4.011 8.942-8.942v-6.046h-2.555z" fill="#1C1F1E"/>
    <path d="M27.847 11.752a4.732 4.732 0 0 0-4.727 4.726 4.732 4.732 0 0 0 4.726 4.727 4.732 4.732 0 0 0 4.727-4.727 4.732 4.732 0 0 0-4.726-4.726zm0 6.898a2.174 2.174 0 0 1-2.172-2.172c0-1.197.974-2.171 2.171-2.171 1.198 0 2.172.974 2.172 2.171a2.174 2.174 0 0 1-2.172 2.172zM7.664 0c-.706 0-1.277.572-1.277 1.277v2.725a1.277 1.277 0 1 0 2.554 0V1.277C8.941.572 8.37 0 7.664 0zM17.542 0c-.705 0-1.277.572-1.277 1.277v2.725a1.277 1.277 0 1 0 2.555 0V1.277C18.82.572 18.248 0 17.542 0z" fill="#1C1F1E"/>
</svg>
