<svg width="128" height="128" viewBox="0 0 128 128" fill="none" xmlns="http://www.w3.org/2000/svg">
    <path fill-rule="evenodd" clip-rule="evenodd" d="M55.497 119.488C24.89 119.488.009 94.608.009 64c0-30.607 24.88-55.488 55.488-55.488 15.408 0 29.774 6.142 40.393 17.385.537.606.478 1.284.134 1.776l3.257 4.257c.621-.316 1.428-.25 1.919.526 6.454 9.265 9.786 20.196 9.786 31.544 0 30.607-24.882 55.488-55.49 55.488zm0-11.451C31.24 108.037 11.46 88.257 11.46 64c0-24.257 19.78-44.037 44.037-44.037 11.555 0 22.487 4.476 30.711 12.493.661.652.558 1.431.128 1.955l4.123 5.117c.629-.368 1.498-.333 1.995.424 18.716 28.48-1.595 68.085-36.957 68.085z" fill="#fff"/>
    <path fill-rule="evenodd" clip-rule="evenodd" d="M56.955 92.525c-.625 0-1.145-.416-1.353-.937-.104-.208-9.058-23.32-22.904-32.064-2.707-1.666-4.788-3.436-3.956-7.392.833-3.852 3.436-6.038 8.12-7.08 8.329-1.77 17.282 11.14 20.613 16.45 11.66-16.97 34.98-43.621 68.918-46.744 1.638-.192 2.243 2.235.729 2.915-.521.208-49.034 22.383-68.71 74.02-.312.52-.833.832-1.457.832z" fill="#FFD850"/>
</svg>
