<svg width="88" height="88" viewBox="0 0 88 88" fill="none" xmlns="http://www.w3.org/2000/svg">
<path fill-rule="evenodd" clip-rule="evenodd" d="M15.4687 18.9064H53.2812C54.2263 18.9064 54.9999 18.133 54.9999 17.1877V10.3128C54.9999 9.36753 54.2265 8.59409 53.2812 8.59409H41.2501C41.2503 4.79686 38.172 1.71875 34.3749 1.71875C30.5779 1.71875 27.4998 4.79686 27.4998 8.59392H15.4687C14.5234 8.59392 13.7499 9.36736 13.7499 10.3127V17.1875C13.7499 18.133 14.5234 18.9064 15.4687 18.9064Z" fill="white"/>
<path fill-rule="evenodd" clip-rule="evenodd" d="M13.75 17.1875V10.3125H5.15624C3.26562 10.3125 1.71875 11.8594 1.71875 13.75V82.8436C1.71875 84.7343 3.26562 86.2811 5.15624 86.2811H63.5935C65.4841 86.2811 67.031 84.7343 67.031 82.8436V13.75C67.031 11.8595 65.4841 10.3125 63.5935 10.3125L54.9998 10.3127V17.1875H60.156V79.4062H8.59372V17.1875H13.75Z" fill="white"/>
<path fill-rule="evenodd" clip-rule="evenodd" d="M15.4687 18.9062C14.5235 18.9062 13.7499 18.1328 13.7499 17.1875H8.59369V79.4062H60.156V17.1875H54.9998C54.9998 18.1326 54.2263 18.9062 53.281 18.9062H15.4687Z" fill="white"/>
<path d="M63.5935 8.59372H56.257C55.6618 7.56711 54.5507 6.87514 53.281 6.87514H42.7962C41.9977 2.95744 38.5249 0 34.3749 0C30.2248 0 26.7521 2.95744 25.9537 6.87514H15.4687C14.1991 6.87514 13.0879 7.56711 12.4927 8.59372H5.15623C2.31308 8.59372 0 10.9068 0 13.7499V82.8438C0 85.6867 2.31308 87.9998 5.15623 87.9998H63.5935C66.4366 87.9998 68.7497 85.6867 68.7497 82.8438V13.7499C68.7497 10.9068 66.4366 8.59372 63.5935 8.59372ZM27.4997 10.3126C28.4488 10.3126 29.2185 9.54298 29.2185 8.59389C29.2185 5.75057 31.5315 3.43749 34.3749 3.43749C37.2182 3.43749 39.5314 5.75057 39.5314 8.59389C39.5314 9.54298 40.3011 10.3126 41.2502 10.3126H53.281V17.1874H15.4687L15.4683 10.3126H27.4997ZM65.3122 82.8438C65.3122 83.7915 64.5412 84.5623 63.5935 84.5623H5.15623C4.20851 84.5623 3.43749 83.7915 3.43749 82.8438V13.7499C3.43749 12.8022 4.20851 12.0312 5.15623 12.0312H12.0312V15.4687H8.59389C7.6448 15.4687 6.87514 16.2383 6.87514 17.1874V79.4061C6.87514 80.3552 7.6448 81.1249 8.59389 81.1249H26.64C27.5891 81.1249 28.3587 80.3552 28.3587 79.4061C28.3587 78.457 27.5891 77.6874 26.64 77.6874H10.3126V18.9062H12.4925C13.0877 19.933 14.1989 20.6249 15.4687 20.6249H53.281C54.5508 20.6249 55.662 19.933 56.2572 18.9062H58.4373V77.6874H42.1087C41.1596 77.6874 40.3899 78.457 40.3899 79.4061C40.3899 80.3552 41.1596 81.1249 42.1087 81.1249H60.156C61.1051 81.1249 61.8748 80.3552 61.8748 79.4061V17.1874C61.8748 16.2383 61.1051 15.4687 60.156 15.4687H56.7185V12.0312H63.5935C64.5412 12.0312 65.3122 12.8022 65.3122 13.7499V82.8438Z" fill="black" fill-opacity="0.23"/>
<path d="M34.3756 10.313C35.3247 10.313 36.0943 9.54333 36.0943 8.59424C36.0943 7.64514 35.3247 6.87549 34.3756 6.87549H34.3742C33.4251 6.87549 32.6561 7.64514 32.6561 8.59424C32.6561 9.54333 33.4263 10.313 34.3756 10.313Z" fill="black" fill-opacity="0.23"/>
<path d="M80.7715 18.7107C80.4804 18.1284 79.8853 17.7607 79.2343 17.7607H74.078C73.1289 17.7607 72.3593 18.5304 72.3593 19.4795C72.3593 20.4286 73.1289 21.1982 74.078 21.1982H75.7968L72.703 25.3232C72.3125 25.844 72.2495 26.5408 72.5408 27.1233C72.8319 27.7056 73.427 28.0732 74.078 28.0732H79.2343C80.1834 28.0732 80.953 27.3036 80.953 26.3545C80.953 25.4054 80.1834 24.6357 79.2343 24.6357H77.5155L80.6093 20.5107C80.9998 19.9898 81.0629 19.2932 80.7715 18.7107Z" fill="black" fill-opacity="0.23"/>
<path d="M86.2813 9.16661H82.8438L87.6563 2.75C88.0468 2.22922 88.1099 1.53244 87.8185 0.949953C87.5274 0.367641 86.9323 0 86.2813 0H79.4063C78.4572 0 77.6875 0.769656 77.6875 1.71875C77.6875 2.66784 78.4572 3.4375 79.4063 3.4375H82.8438L78.0313 9.85411C77.6408 10.3749 77.5777 11.0717 77.869 11.654C78.1602 12.2365 78.7552 12.6041 79.4063 12.6041H86.2813C87.2304 12.6041 88 11.8345 88 10.8854C88 9.93626 87.2304 9.16661 86.2813 9.16661Z" fill="black" fill-opacity="0.23"/>
<path d="M25.9226 41.3026C25.2791 41.9461 24.4235 42.3006 23.5134 42.3006C22.6035 42.3006 21.7481 41.9462 21.1044 41.3026C20.4331 40.6316 19.3451 40.6316 18.6736 41.3026C18.0024 41.9737 18.0024 43.0621 18.6736 43.7334C19.9664 45.0261 21.6852 45.7381 23.5133 45.7381C25.3415 45.7381 27.0602 45.0261 28.3531 43.7334C29.0243 43.0622 29.0243 41.9739 28.3531 41.3026C27.6821 40.6316 26.5939 40.6316 25.9226 41.3026Z" fill="black" fill-opacity="0.23"/>
<path d="M45.2363 45.7381C47.0645 45.7381 48.7833 45.0261 50.0761 43.7334C50.7473 43.0622 50.7473 41.9739 50.0761 41.3026C49.4048 40.6316 48.3168 40.6316 47.6453 41.3026C47.0018 41.9461 46.1462 42.3006 45.2361 42.3006C44.3261 42.3006 43.4706 41.9462 42.827 41.3026C42.1556 40.6316 41.0677 40.6316 40.3961 41.3026C39.725 41.9737 39.725 43.0621 40.3961 43.7334C41.6895 45.0261 43.4082 45.7381 45.2363 45.7381Z" fill="black" fill-opacity="0.23"/>
<path d="M36.8026 52.3569H31.9473C30.9982 52.3569 30.2286 53.1266 30.2286 54.0757C30.2286 55.0248 30.9982 55.7944 31.9473 55.7944H36.8026C37.7517 55.7944 38.5214 55.0248 38.5214 54.0757C38.5214 53.1266 37.7517 52.3569 36.8026 52.3569Z" fill="black" fill-opacity="0.23"/>
<path d="M34.375 77.6875H34.3736C33.4245 77.6875 32.6556 78.4572 32.6556 79.4062C32.6556 80.3553 33.4258 81.125 34.375 81.125C35.3243 81.125 36.0938 80.3553 36.0938 79.4062C36.0938 78.4572 35.3241 77.6875 34.375 77.6875Z" fill="black" fill-opacity="0.23"/>
</svg>
