<svg width="11" height="11" viewBox="0 0 11 11" fill="none" xmlns="http://www.w3.org/2000/svg">
    <g clip-path="url(#n3b0nlup6a)" fill="#0842DB">
        <path d="M6.261 2.255h1.215L5.617.3v1.308c0 .355.287.647.644.647z"/>
        <path d="M4.247 7.186H2.093a.199.199 0 0 1-.198-.198c0-.109.09-.198.198-.198h2.285a3.52 3.52 0 0 1 .503-.868H2.093a.199.199 0 0 1-.198-.198c0-.109.09-.198.198-.198h3.165A3.412 3.412 0 0 1 7.5 4.674c.082 0 .15.007.248.014V2.651H6.261c-.575 0-1.04-.47-1.04-1.043V0H1.419a.887.887 0 0 0-.882.895v7.563c0 .493.392.884.882.884h2.986a3.309 3.309 0 0 1-.265-1.308 3.308 3.308 0 0 1 .107-.848zM2.093 4.287h2.51c.11 0 .199.09.199.198 0 .11-.09.199-.198.199h-2.51a.199.199 0 0 1-.199-.199c0-.109.09-.198.198-.198z"/>
        <path d="M7.498 5.077a2.964 2.964 0 0 0-2.961 2.961A2.964 2.964 0 0 0 7.497 11a2.964 2.964 0 0 0 2.962-2.962 2.964 2.964 0 0 0-2.961-2.96zm-.005 2.748a1.081 1.081 0 0 1 .18 2.146v.288c0 .109-.088.198-.197.198a.199.199 0 0 1-.199-.198v-.295a1.084 1.084 0 0 1-.864-1.058c0-.11.089-.199.198-.199.109 0 .198.09.198.199 0 .376.307.684.684.684a.685.685 0 0 0 .684-.684.685.685 0 0 0-.684-.684 1.081 1.081 0 0 1-.216-2.139v-.21a.199.199 0 0 1 .396 0v.2c.511.087.9.53.9 1.066 0 .109-.089.198-.198.198a.199.199 0 0 1-.198-.198.687.687 0 0 0-.64-.684.225.225 0 0 1-.121.002.685.685 0 0 0 .077 1.368z"/>
    </g>
    <defs>
        <clipPath id="n3b0nlup6a">
            <path fill="#fff" d="M0 0h11v11H0z"/>
        </clipPath>
    </defs>
</svg>
