<svg width="20" height="20" viewBox="0 0 20 20" fill="none" xmlns="http://www.w3.org/2000/svg">
    <g clip-path="url(#4n1gyjqvfa)" fill="#EBEBEB">
        <path d="M.881 6.93a.276.276 0 0 1-.109-.02v11.04c0 .665.541 1.203 1.203 1.203H18.02c.668 0 1.21-.538 1.21-1.203V6.91a.29.29 0 0 1-.113.02H.881zm4.315 10.346a.39.39 0 0 1-.39.39H3.26a.39.39 0 0 1-.39-.39V15.73a.39.39 0 0 1 .39-.39h1.546a.39.39 0 0 1 .39.39v1.546zm0-3.596a.39.39 0 0 1-.39.39H3.26a.39.39 0 0 1-.39-.39v-1.546a.39.39 0 0 1 .39-.39h1.546a.39.39 0 0 1 .39.39v1.546zm0-3.596a.39.39 0 0 1-.39.39H3.26a.39.39 0 0 1-.39-.39V8.537a.39.39 0 0 1 .39-.39h1.546a.39.39 0 0 1 .39.39v1.547zm4.497 7.192a.39.39 0 0 1-.39.39H7.755a.39.39 0 0 1-.39-.39V15.73a.39.39 0 0 1 .39-.39h1.546a.39.39 0 0 1 .39.39v1.546zm0-3.596a.39.39 0 0 1-.39.39H7.756a.39.39 0 0 1-.39-.39v-1.546a.39.39 0 0 1 .39-.39h1.547a.39.39 0 0 1 .39.39v1.546zm0-3.596a.39.39 0 0 1-.39.39H7.756a.39.39 0 0 1-.39-.39V8.537a.39.39 0 0 1 .39-.39h1.547a.39.39 0 0 1 .39.39v1.547zm7.821 3.814h-2.259v2.259H13.44v-2.26h-2.26v-1.815h2.26V9.823h1.815v2.259h2.26v1.816zM18.02 3.05h-.933v1.227c0 .617-.503 1.123-1.124 1.123a1.127 1.127 0 0 1-1.123-1.123V3.05h-3.718v1.227c0 .617-.503 1.123-1.123 1.123a1.127 1.127 0 0 1-1.124-1.123V3.05H5.157v1.227c0 .617-.503 1.123-1.123 1.123A1.127 1.127 0 0 1 2.91 4.277V3.05h-.935c-.662 0-1.203.542-1.203 1.21v2.337c0 .062.05.112.109.112h18.235c.062 0 .112-.05.112-.112V4.26c0-.668-.541-1.209-1.209-1.209z"/>
        <path d="M4.035 5.179c.5 0 .903-.406.903-.903V1.75c0-.25-.1-.474-.264-.639a.905.905 0 0 0-1.541.638v2.527c0 .497.405.903.902.903zM10 5.179c.5 0 .903-.406.903-.903V1.75c0-.25-.1-.474-.265-.639a.905.905 0 0 0-1.541.638v2.527c0 .497.406.903.903.903zM15.965 5.179c.5 0 .902-.406.902-.903V1.75c0-.25-.1-.474-.264-.639a.905.905 0 0 0-1.541.638v2.527c0 .497.405.903.903.903z"/>
    </g>
    <defs>
        <clipPath id="4n1gyjqvfa">
            <path fill="#fff" d="M0 0h20v20H0z"/>
        </clipPath>
    </defs>
</svg>
