<svg width="80" height="80" viewBox="0 0 80 80" fill="none" xmlns="http://www.w3.org/2000/svg">
    <g clip-path="url(#a7d0iibv9a)">
        <path d="M41.054 74.77c-.456 0-.892-.187-1.207-.517l-17.59-18.385-11.529-12.05a2.351 2.351 0 0 1-.05-.055c-4.271-4.881-6.26-10.57-5.753-16.45.454-5.258 2.885-10.247 6.845-14.05 3.928-3.77 8.934-5.933 14.095-6.09 5.354-.161 10.566 1.821 15.165 5.752 4.335-3.84 9.423-5.801 14.797-5.683 5.242.115 10.35 2.211 14.384 5.904 4.032 3.692 6.523 8.574 7.015 13.747.552 5.806-1.427 11.608-5.723 16.783a1.64 1.64 0 0 1-.122.142L45.77 70.587l-3.509 3.667a1.671 1.671 0 0 1-1.207.515zM13.17 41.534l11.503 12.022 16.382 17.124 2.301-2.405 25.557-26.712c8.182-9.832 5.417-20.117-.958-25.953-6.262-5.733-16.981-7.938-25.72.768a1.67 1.67 0 0 1-2.33.027c-9.231-8.766-19.619-6.684-25.82-.732-6.156 5.91-9.064 16.52-.915 25.86z" fill="#552483"/>
        <path d="M46.185 56.163c-.731 0-1.379-.476-1.596-1.177l-4.738-15.3h-6.242a1.671 1.671 0 0 1-1.59-1.157l-3.402-10.526-3.736 10.99a1.671 1.671 0 0 1-1.582 1.134H3.895a1.671 1.671 0 0 1 0-3.342h18.207l4.972-14.628a1.671 1.671 0 0 1 1.582-1.134h.013a1.67 1.67 0 0 1 1.577 1.157l4.579 14.165h6.258c.732 0 1.38.477 1.596 1.176l3.456 11.161 7.36-25.301a1.67 1.67 0 0 1 3.22.041l3.891 14.761H78.33a1.671 1.671 0 0 1 0 3.342H59.32a1.671 1.671 0 0 1-1.616-1.245l-2.682-10.177-7.231 24.856a1.67 1.67 0 0 1-1.59 1.204h-.015z" fill="#0842DB"/>
    </g>
    <defs>
        <clipPath id="a7d0iibv9a">
            <path fill="#fff" d="M0 0h80v80H0z"/>
        </clipPath>
    </defs>
</svg>
