<svg width="24" height="24" viewBox="0 0 24 24" xmlns="http://www.w3.org/2000/svg">
    <g fill="#343433" fill-rule="nonzero">
        <path d="M9.419 7.214H6.5a.489.489 0 1 0 0 .978H9.42a.489.489 0 0 0 0-.978zM9.419 9.17H6.5a.489.489 0 1 0 0 .977H9.42a.489.489 0 0 0 0-.977zM9.419 11.125H6.5a.489.489 0 1 0 0 .977H9.42a.489.489 0 0 0 0-.977zM9.419 13.08H6.5a.489.489 0 1 0 0 .978H9.42a.489.489 0 0 0 0-.978zM9.419 15.068H6.5a.489.489 0 0 0 0 .978H9.42a.489.489 0 0 0 0-.978zM11.06 8.192h2.917a.489.489 0 1 0 0-.978H11.06a.489.489 0 0 0 0 .978zM11.06 10.147h2.917a.489.489 0 1 0 0-.977H11.06a.489.489 0 0 0 0 .977zM12.954 11.614a.489.489 0 0 0-.489-.49H11.06a.489.489 0 0 0 0 .978h1.405c.27 0 .489-.218.489-.488zM17.584 15.275a.489.489 0 0 0-.687.075l-1.259 1.57-.779-.565a.489.489 0 1 0-.574.791l1.157.838a.487.487 0 0 0 .668-.09l1.55-1.932a.489.489 0 0 0-.076-.687z"/>
        <path d="M18.82 13.774a4.031 4.031 0 0 0-2.341-1.176v-6.63A1.97 1.97 0 0 0 14.51 4H5.97A1.97 1.97 0 0 0 4 5.969V17.29a1.97 1.97 0 0 0 1.969 1.97h6.87a4.024 4.024 0 0 0 3.086 1.423 4.065 4.065 0 0 0 4.06-4.062 4.04 4.04 0 0 0-1.165-2.848zM4.978 17.291V5.97c0-.547.444-.991.99-.991h8.542c.547 0 .991.444.991.99v6.614a4.067 4.067 0 0 0-3.281 5.7H5.969a.992.992 0 0 1-.991-.99zm10.947 2.416a3.059 3.059 0 0 1-2.462-1.23 3.087 3.087 0 0 1 2.51-4.94l.008.001a3.062 3.062 0 0 1 2.142.921 3.087 3.087 0 0 1-2.197 5.247z"/>
    </g>
</svg>
