<svg width="24" height="24" viewBox="0 0 24 24" xmlns="http://www.w3.org/2000/svg">
    <path d="M19.531 19.063h-3.765a3.3 3.3 0 0 1-3.297-3.297 3.3 3.3 0 0 1 3.297-3.297 3.3 3.3 0 0 1 3.296 3.297.787.787 0 0 1-1.572 0c0-.951-.774-1.724-1.724-1.724-.951 0-1.724.773-1.724 1.724 0 .95.773 1.724 1.724 1.724.494 0 .94-.21 1.255-.544.314.334.76.544 1.255.544.95 0 1.724-.774 1.724-1.724a4.24 4.24 0 0 0-5.302-4.098 4.958 4.958 0 0 0 .783-2.68A4.993 4.993 0 0 0 10.494 4a4.993 4.993 0 0 0-4.988 4.988 4.993 4.993 0 0 0 2.74 4.45A6.505 6.505 0 0 0 4 19.532c0 .26.21.469.469.469H19.53a.469.469 0 0 0 0-.938zm-3.765-2.51a.787.787 0 1 1 .001-1.576.787.787 0 0 1-.001 1.575zM6.444 8.986a4.055 4.055 0 0 1 4.05-4.05 4.055 4.055 0 0 1 4.05 4.05 4.055 4.055 0 0 1-4.05 4.05 4.055 4.055 0 0 1-4.05-4.05zM4.957 19.063a5.564 5.564 0 0 1 6.898-4.919 4.228 4.228 0 0 0 1.257 4.92H4.957z" fill="#343433" fill-rule="nonzero"/>
</svg>
