<svg width="24" height="24" viewBox="0 0 24 24" xmlns="http://www.w3.org/2000/svg">
    <path d="M17 14.023c-.988 0-1.866.479-2.413 1.215L9.878 12.84a2.969 2.969 0 0 0-.097-1.964l4.935-2.953A3 3 0 0 0 17 8.977c1.654 0 3-1.341 3-2.989A2.998 2.998 0 0 0 17 3c-1.654 0-3 1.34-3 2.988 0 .381.072.745.203 1.08L9.255 10.03A2.999 2.999 0 0 0 7 9.01c-1.654 0-3 1.34-3 2.988a2.998 2.998 0 0 0 3 2.988 3.002 3.002 0 0 0 2.44-1.25l4.695 2.39c-.088.28-.135.577-.135.886A2.998 2.998 0 0 0 17 20c1.654 0 3-1.34 3-2.988a2.998 2.998 0 0 0-3-2.989zm0-10.027c1.103 0 2 .894 2 1.992a1.998 1.998 0 0 1-2 1.992c-1.103 0-2-.893-2-1.992 0-1.098.897-1.992 2-1.992zM7 13.99c-1.103 0-2-.893-2-1.992 0-1.098.897-1.992 2-1.992s2 .894 2 1.992a1.998 1.998 0 0 1-2 1.992zm10 5.014c-1.103 0-2-.894-2-1.992 0-1.099.897-1.992 2-1.992s2 .893 2 1.992a1.998 1.998 0 0 1-2 1.992z" fill="#343433" fill-rule="nonzero" stroke="#343433" stroke-width=".3"/>
</svg>
