<svg width="24" height="24" viewBox="0 0 24 24" xmlns="http://www.w3.org/2000/svg">
    <path d="M15.785 19h-7.57c-4.288-.163-4.285-6.292 0-6.453h1.647c.727.027.726 1.067 0 1.094H8.215c-2.835.107-2.832 4.159 0 4.265h7.57c2.835-.107 2.832-4.159 0-4.265h-1.866c-.727-.027-.727-1.067 0-1.094h1.866c4.288.163 4.285 6.292 0 6.453zm-5.02-3.91a.685.685 0 0 0-.685.683c.034.906 1.338.906 1.371 0a.685.685 0 0 0-.685-.683zm-1.782.683a.685.685 0 0 1-.686.684c-.908-.033-.908-1.334 0-1.367.38 0 .686.306.686.683zm4.937 0a.685.685 0 0 1-.686.684c-.908-.033-.908-1.334 0-1.367.379 0 .686.306.686.683zm2.468 0a.685.685 0 0 1-.685.684c-.909-.033-.909-1.334 0-1.367.378 0 .685.306.685.683zm-3.812-3.8a.685.685 0 0 1-.686.683c-.908-.033-.908-1.334 0-1.367.379 0 .686.306.686.684zM12.207 5c-.786 0-1.592.407-2.212 1.118a.546.546 0 0 0 .054.771.55.55 0 0 0 .774-.054c.411-.47.916-.741 1.384-.741.794-.004 1.18 1.068.433 1.489-.8.477-1.297 1.39-1.297 2.339a.548.548 0 0 0 1.097 0c0-.567.292-1.12.763-1.4 1.692-1 .91-3.516-.996-3.522z" fill="#C1C1C1" fill-rule="nonzero"/>
</svg>
