<svg width="24" height="24" viewBox="0 0 24 24" xmlns="http://www.w3.org/2000/svg">
    <g fill="#343433" fill-rule="nonzero">
        <path d="M7.606 8h-.212L7 10h1zM16 12c.258.8.6 1.449.98 2 .38-.551.762-1.2 1.02-2h-2z"/>
        <path d="M19.33 6h-6.917l1.442 11.105c.026.454-.104.882-.413 1.217L11 21h8.33c.92 0 1.67-.72 1.67-1.603V7.639C21 6.755 20.25 6 19.33 6zm0 5.914h-.15a6.71 6.71 0 0 1-1.341 2.341c.409.36.846.654 1.281.984a.52.52 0 0 1 .087.75.573.573 0 0 1-.783.084c-.472-.358-.916-.658-1.36-1.049-.443.391-.85.69-1.322 1.049a.573.573 0 0 1-.783-.083.52.52 0 0 1 .087-.751c.435-.33.835-.625 1.244-.984a6.666 6.666 0 0 1-1.305-2.34h-.148a.546.546 0 0 1-.557-.535c0-.295.249-.534.557-.534h1.67v-.535c0-.295.25-.534.557-.534.308 0 .557.239.557.534v.535h1.708c.308 0 .557.239.557.534 0 .295-.249.534-.557.534z"/>
        <path d="M11.427 4.401C11.33 3.602 10.667 3 9.886 3H4.553C3.697 3 3 3.718 3 4.6v11.8c0 .882.697 1.6 1.553 1.6h8.164c.151-.178.278-.29.283-.521.001-.058-1.566-13.02-1.573-13.078zm-2.079 8.79a.518.518 0 0 1-.609-.418l-.33-1.704H6.944l-.331 1.704a.515.515 0 0 1-.61.418.533.533 0 0 1-.405-.627l1.035-5.332a.522.522 0 0 1 .508-.429h1.07c.246 0 .458.18.507.429l1.035 5.332a.533.533 0 0 1-.406.627zM9 19l.098.743c.065.497.414 1.004.987 1.257L12 19H9z"/>
    </g>
</svg>
