<svg width="24" height="25" viewBox="0 0 24 25" xmlns="http://www.w3.org/2000/svg">
    <g fill="#FFF" fill-rule="nonzero">
        <path d="M23.3 16.27a1.232 1.232 0 0 0-1.638.57A10.14 10.14 0 0 1 18 20.968a10.075 10.075 0 0 1-5.448 1.592c-5.57 0-10.1-4.512-10.1-10.059s4.53-10.059 10.1-10.059c1.942 0 3.825.552 5.453 1.587a10.11 10.11 0 0 1 3.662 4.126 1.23 1.23 0 0 0 1.638.572c.608-.293.868-1.02.574-1.631a12.5 12.5 0 0 0-4.55-5.122A12.576 12.576 0 0 0 12.551 0a12.48 12.48 0 0 0-8.875 3.662A12.375 12.375 0 0 0 0 12.5c0 3.34 1.304 6.48 3.677 8.838A12.488 12.488 0 0 0 12.552 25c2.413 0 4.756-.684 6.776-1.978a12.596 12.596 0 0 0 4.55-5.122c.29-.61.035-1.337-.578-1.63z"/>
        <path d="M13.204 17.251c.24.24.554.356.868.356.314 0 .628-.117.868-.356l3.084-3.071a2.36 2.36 0 0 0 0-3.35L14.94 7.76a1.229 1.229 0 0 0-1.736 0c-.48.478-.48 1.25 0 1.728l1.81 1.802H8.046c-.676 0-1.226.547-1.226 1.22 0 .675.55 1.221 1.226 1.221h6.973l-1.81 1.802a1.21 1.21 0 0 0-.005 1.719z"/>
    </g>
</svg>
