<svg width="19" height="20" viewBox="0 0 19 20" fill="none" xmlns="http://www.w3.org/2000/svg">
    <g clip-path="url(#8jm1kjr28a)">
        <path d="M17.201 4.395H1.76C1.013 4.395.407 5 .407 5.747v9.443c0 .747.606 1.352 1.352 1.352h15.442c.747 0 1.353-.605 1.353-1.352V5.747c0-.747-.606-1.352-1.352-1.352z" fill="#552483"/>
        <path d="M8.241 6.432h-4.77c-.795 0-1.438.644-1.438 1.438v5.198c0 .794.643 1.437 1.437 1.437h4.771c.794 0 1.438-.643 1.438-1.437V7.87c0-.794-.644-1.438-1.438-1.438z" fill="#F7F5FB"/>
        <path d="M5.855 10.21a1.222 1.222 0 1 0 0-2.445 1.222 1.222 0 0 0 0 2.444zM7.235 10.876H4.476c-.568 0-1.028.46-1.028 1.028v.24c0 .568.46 1.028 1.028 1.028h2.759c.567 0 1.028-.46 1.028-1.028v-.24c0-.568-.46-1.028-1.028-1.028z" fill="#fff"/>
        <path d="M5.616 16.542H1.76A1.352 1.352 0 0 1 .407 15.19V5.747a1.353 1.353 0 0 1 .89-1.27v.177a18.439 18.439 0 0 0 4.32 11.888z" fill="#552483"/>
        <path d="M4.131 14.505H3.47a1.436 1.436 0 0 1-1.437-1.437V9.842a18.412 18.412 0 0 0 2.098 4.663z" fill="#E4E3E8"/>
        <path d="M16.928 7.913h-5.555a.222.222 0 0 1 0-.444h5.555a.222.222 0 1 1 0 .444zM15.595 9.765h-4.222a.222.222 0 0 1 0-.444h4.222a.222.222 0 1 1 0 .444zM16.928 11.617h-5.555a.222.222 0 0 1 0-.445h5.555a.222.222 0 1 1 0 .445zM14.67 13.468h-3.297a.222.222 0 0 1 0-.444h3.296a.222.222 0 0 1 0 .444z" fill="#fff"/>
    </g>
    <defs>
        <clipPath id="8jm1kjr28a">
            <path fill="#fff" transform="translate(0 .988)" d="M0 0h18.961v18.961H0z"/>
        </clipPath>
    </defs>
</svg>
