<svg width="20" height="20" viewBox="0 0 20 20" xmlns="http://www.w3.org/2000/svg">
    <path d="M15 12.119v-3.04c0-2.258-1.4-4.227-3.327-4.963.022-.116.035-.235.035-.353C11.708 2.79 10.943 2 10 2c-.942 0-1.707.79-1.707 1.763 0 .116.012.232.032.343a4.946 4.946 0 0 0-1.797 1.148 5.197 5.197 0 0 0-1.527 3.714v3.15a.201.201 0 0 1-.198.205c-.922 0-1.71.717-1.795 1.63a1.846 1.846 0 0 0 .448 1.392c.33.374.802.59 1.295.59h3.014C7.89 17.095 8.845 18 10 18c1.155 0 2.11-.906 2.235-2.065h3.015c.493 0 .965-.216 1.295-.59.33-.377.493-.883.448-1.391a1.816 1.816 0 0 0-1.795-1.631.2.2 0 0 1-.198-.204zm-4.292-8.356c0 .033-.005.064-.01.098a4.295 4.295 0 0 0-.515-.05c-.298-.01-.59.01-.88.052-.005-.033-.01-.064-.01-.098A.72.72 0 0 1 10 3.032a.72.72 0 0 1 .708.73zM10 16.968c-.602 0-1.107-.444-1.225-1.033h2.45c-.117.589-.622 1.033-1.225 1.033z" fill="#EBEBEB" fill-rule="evenodd"/>
</svg>
