<svg width="20" height="27" viewBox="0 0 20 27" xmlns="http://www.w3.org/2000/svg">
    <path d="M17.5 10.969V7.594C17.5 3.375 14.167 0 10 0S2.5 3.375 2.5 7.594v3.375c-1.417 0-2.5 1.097-2.5 2.531v10.969C0 25.819 1.083 27 2.5 27h15c1.417 0 2.5-1.181 2.5-2.531V13.5c0-1.434-1.083-2.531-2.5-2.531zM4.167 7.594c0-3.29 2.583-5.907 5.833-5.907s5.833 2.616 5.833 5.907v3.375H4.167V7.594zm6.666 12.487v1.857c0 .506-.333.843-.833.843-.5 0-.833-.337-.833-.843V20.08c-1-.337-1.667-1.265-1.667-2.362 0-1.435 1.083-2.532 2.5-2.532s2.5 1.097 2.5 2.532c0 1.097-.667 2.025-1.667 2.362z" fill="#D6D6D6" fill-rule="nonzero"/>
</svg>
