<svg width="29" height="24" viewBox="0 0 29 24" xmlns="http://www.w3.org/2000/svg">
    <path d="M19.177 13.989c0 2.621-2.098 4.754-4.677 4.754-2.579 0-4.676-2.133-4.676-4.754 0-2.621 2.097-4.754 4.676-4.754s4.677 2.134 4.677 4.754zM29 7.239V20.74C29 22.54 27.564 24 25.793 24H3.207C1.436 24 0 22.54 0 20.74V7.24c0-1.8 1.436-3.26 3.207-3.26H7.15V2.853C7.151 1.277 8.406 0 9.957 0h9.086c1.55 0 2.806 1.277 2.806 2.852v1.127h3.944c1.771 0 3.207 1.46 3.207 3.26zm-7.418 6.75c0-3.969-3.177-7.198-7.082-7.198-3.904 0-7.081 3.229-7.081 7.198 0 3.969 3.177 7.198 7.081 7.198 3.905 0 7.082-3.229 7.082-7.198z" fill="#FFF" fill-rule="nonzero"/>
</svg>
