<svg width="20" height="20" viewBox="0 0 20 20" fill="none" xmlns="http://www.w3.org/2000/svg">
    <path d="M9.753 9.707c1.031 0 1.924-.38 2.654-1.129s1.1-1.666 1.1-2.725c0-1.058-.37-1.975-1.1-2.724C11.677 2.379 10.784 2 9.753 2S7.829 2.38 7.1 3.129C6.37 3.878 6 4.795 6 5.853c0 1.06.37 1.976 1.1 2.725.73.75 1.622 1.13 2.653 1.13zM16.966 14.575a9.1 9.1 0 0 0-.136-1.011 7.656 7.656 0 0 0-.26-1.017 4.904 4.904 0 0 0-.439-.948 3.604 3.604 0 0 0-.66-.821c-.262-.238-.58-.43-.95-.569A3.423 3.423 0 0 0 13.309 10c-.171 0-.337.067-.657.266-.197.122-.427.264-.684.42-.22.134-.518.26-.886.372a3.67 3.67 0 0 1-1.082.167c-.36 0-.724-.056-1.083-.167a4.004 4.004 0 0 1-.885-.371 90.791 90.791 0 0 1-.685-.421C7.027 10.067 6.86 10 6.69 10c-.436 0-.844.07-1.212.21-.369.139-.688.33-.949.568-.25.228-.472.504-.66.821-.183.306-.33.625-.439.948a7.68 7.68 0 0 0-.26 1.017 9.066 9.066 0 0 0-.136 1.01C3.01 14.882 3 15.2 3 15.52c0 .835.278 1.511.828 2.01.542.492 1.26.741 2.132.741h8.08c.873 0 1.59-.25 2.132-.741.55-.499.828-1.175.828-2.01 0-.323-.012-.64-.034-.945z" fill="#EBEBEB"/>
</svg>
