<svg width="11" height="11" viewBox="0 0 11 11" fill="none" xmlns="http://www.w3.org/2000/svg">
    <path d="M5.5 0a2.391 2.391 0 0 0-2.388 2.389A2.391 2.391 0 0 0 5.5 4.779a2.392 2.392 0 0 0 2.388-2.39A2.391 2.391 0 0 0 5.5 0zM7.345 5.453c.086.367.22 1.036.175 1.424.351.311 1.273 1.23 1.073 2.135-.002.011-.097.532-.743.753a.228.228 0 0 1-.29-.143.229.229 0 0 1 .142-.29c.385-.132.44-.405.441-.407.137-.622-.55-1.376-.932-1.711-.458.222-1.323.767-1.356 1.39-.001.02-.016.296.315.52a.23.23 0 0 1-.258.38c-.565-.384-.516-.913-.514-.936.052-.968 1.317-1.628 1.67-1.794.022-.344-.121-1.053-.226-1.455-.004-.012-.001-.024-.003-.037a3.971 3.971 0 0 0-1.045-.143h-.588c-.406 0-.797.062-1.166.175-.004.016-.005.033-.013.049-.005.01-.502 1.04-.739 2.615.399.11.694.472.694.904a.943.943 0 0 1-1.884 0c0-.445.312-.817.729-.914.16-1.11.442-1.955.621-2.416a3.995 3.995 0 0 0-2.235 3.581v1.638c0 .127.102.23.229.23h8.117c.127 0 .23-.107.23-.233V9.133a4.001 4.001 0 0 0-2.444-3.68z" fill="#0842DB"/>
</svg>
