<svg width="93" height="94" viewBox="0 0 93 94" fill="none" xmlns="http://www.w3.org/2000/svg">
    <g clip-path="url(#n8btj03wca)">
        <path d="M46.344 12.788C26.13-4.892.427 10.642.005 31.702c-.107 5.367 1.442 10.595 4.526 15.415h19.99l3.555-5.926c1.032-1.72 3.53-1.776 4.621-.06L40.2 52.917l10.935-23.084c.953-2.014 3.795-2.078 4.847-.125l9.373 17.408h22.803c16.892-26.4-16.492-56.476-41.813-34.33z" fill="#7899F2"/>
        <path d="m61.34 51.123-7.596-14.105-10.74 22.674c-.914 1.93-3.602 2.097-4.748.296l-7.783-12.23-2.085 3.475a2.717 2.717 0 0 1-2.33 1.32H8.83c.54.564-2.338-2.308 35.599 35.432a2.717 2.717 0 0 0 3.832 0c37.354-37.16 35.06-34.869 35.599-35.433H63.732c-1 0-1.919-.548-2.392-1.429z" fill="#80E2AC"/>
    </g>
    <defs>
        <clipPath id="n8btj03wca">
            <path fill="#fff" transform="translate(0 .56)" d="M0 0h92.741v92.741H0z"/>
        </clipPath>
    </defs>
</svg>
