<svg width="80" height="80" viewBox="0 0 80 80" fill="none" xmlns="http://www.w3.org/2000/svg">
    <g clip-path="url(#or81uy7xja)">
        <path d="M59.683 31.94c-.102-4.735-2.024-9.194-5.413-12.554-3.387-3.36-7.863-5.244-12.598-5.306a18.179 18.179 0 0 0-10.113 2.89c-1.042.67-2.39.67-3.431 0a18.19 18.19 0 0 0-10.113-2.89c-4.705.062-9.16 1.926-12.54 5.247C2.092 22.65.15 27.07.008 31.774a18.243 18.243 0 0 0 2.362 9.573c3.072 5.41 4.93 11.157 5.522 17.079l.01.08 1.125 7.606a18.3 18.3 0 0 0 8.662 13.022l.549.332c.084.05.173.094.265.13a5.596 5.596 0 0 0 4.981-.447 5.58 5.58 0 0 0 2.657-4.237l1.66-16.674c.155-1.494 1.412-2.666 2.86-2.67h.01a2.865 2.865 0 0 1 2.857 2.564l1.67 16.766a5.577 5.577 0 0 0 2.662 4.242 5.581 5.581 0 0 0 4.987.437c.094-.036.183-.08.269-.132a18.425 18.425 0 0 0 8.717-14.03l.553-6.168.005-.068c.313-6.263 2.051-12.413 5.169-18.279a18.27 18.27 0 0 0 2.122-8.96zM48.96 58.973l-.55 6.134a14.986 14.986 0 0 1-6.943 11.315 2.165 2.165 0 0 1-1.814-.216 2.17 2.17 0 0 1-1.036-1.65l-1.67-16.775a6.295 6.295 0 0 0-6.276-5.652h-.02c-3.23.01-5.926 2.481-6.271 5.758l-1.66 16.683a2.175 2.175 0 0 1-1.032 1.648 2.178 2.178 0 0 1-1.818.218l-.403-.244a14.876 14.876 0 0 1-7.039-10.585l-1.119-7.565c-.645-6.388-2.646-12.577-5.95-18.394-1.337-2.353-2-5.04-1.915-7.77A14.784 14.784 0 0 1 18.06 17.517a14.757 14.757 0 0 1 8.207 2.344 6.623 6.623 0 0 0 7.151 0c.586-.376 1.194-.71 1.82-.997l-.31 2.805c-.403 3.625 1.817 7.095 5.276 8.247a4.344 4.344 0 0 1 2.941 4.667l-.467 3.736a7.83 7.83 0 0 0 3.553 7.54 476.833 476.833 0 0 1 4.455 2.859 45.043 45.043 0 0 0-1.725 10.256zm5.565-19.688a50.307 50.307 0 0 0-2.726 6.055c-1.13-.73-2.377-1.526-3.725-2.383a4.377 4.377 0 0 1-1.986-4.212l.468-3.74a7.777 7.777 0 0 0-5.266-8.352 4.373 4.373 0 0 1-2.948-4.607l.478-4.305a14.953 14.953 0 0 1 2.804-.225c3.947.054 7.56 1.705 10.208 4.33 2.647 2.625 4.33 6.224 4.414 10.167a14.847 14.847 0 0 1-1.72 7.272zM76.719 53.454h-6.25a1.719 1.719 0 0 1 0-3.437h6.25a1.719 1.719 0 0 1 0 3.437zM76.719 59.704h-6.25a1.719 1.719 0 0 1 0-3.437h6.25a1.719 1.719 0 0 1 0 3.437z" fill="#552483"/>
        <path d="M78.281 15.641h-9.375c-.948 0-1.719.769-1.719 1.719v1.406h-4.53c-.95 0-1.72.769-1.72 1.719v1.406H55.46a1.718 1.718 0 1 0 0 3.438h5.478v1.406c0 .95.77 1.719 1.72 1.719h4.53v1.406c0 .948.77 1.719 1.72 1.719h2.968v5.937h-1.406c-.95 0-1.72.77-1.72 1.719v31.25c0 .95.77 1.72 1.72 1.72h6.25c.95 0 1.719-.77 1.719-1.72v-31.25c0-.948-.77-1.719-1.72-1.719h-1.406V31.58h2.97c.95 0 1.718-.77 1.718-1.719v-12.5c0-.95-.769-1.719-1.719-1.719zm-11.094 9.375h-2.812v-2.812h2.812v2.812zM75 68.766h-2.813V40.954H75v27.812zm1.563-40.625h-5.938V19.08h5.938v9.062zM57.717 8.015A1.719 1.719 0 0 1 56.043 5.9l1.082-4.56a1.719 1.719 0 1 1 3.344.792l-1.081 4.561a1.72 1.72 0 0 1-1.671 1.323zM63.077 12.498a1.718 1.718 0 0 1-.903-3.182l3.761-2.32a1.719 1.719 0 0 1 1.805 2.926l-3.762 2.32a1.71 1.71 0 0 1-.9.256zM50.915 9.613c-.577 0-1.14-.29-1.465-.817l-2.32-3.762a1.719 1.719 0 0 1 2.926-1.804l2.32 3.762a1.719 1.719 0 0 1-1.461 2.62z" fill="#0842DB"/>
    </g>
    <defs>
        <clipPath id="or81uy7xja">
            <path fill="#fff" d="M0 0h80v80H0z"/>
        </clipPath>
    </defs>
</svg>
